<svg width="32" height="32" viewBox="0 0 32 32" fill="none" xmlns="http://www.w3.org/2000/svg">
  <defs>
    <linearGradient id="bg" x1="0" y1="0" x2="32" y2="32" gradientUnits="userSpaceOnUse">
      <stop stop-color="#38BDF8"/>
      <stop offset="1" stop-color="#0284C7"/>
    </linearGradient>
  </defs>
  <rect width="32" height="32" rx="7" fill="url(#bg)"/>
  <!-- Main sparkle -->
  <path d="M16 5.5C16.9 11.6 16.9 11.6 23 12.5C16.9 13.4 16.9 13.4 16 19.5C15.1 13.4 15.1 13.4 9 12.5C15.1 11.6 15.1 11.6 16 5.5Z" fill="white"/>
  <!-- Small accent sparkle -->
  <path d="M22.5 18.5C22.9 21.6 22.9 21.6 26 22C22.9 22.4 22.9 22.4 22.5 25.5C22.1 22.4 22.1 22.4 19 22C22.1 21.6 22.1 21.6 22.5 18.5Z" fill="white" fill-opacity="0.85"/>
</svg>
